#!OML:ASF E:\Style4\Style4.ASF
:FULLY-SPECIFIED
:DEGREES
1795
root 0.623525 16.8686 -1.71513 6.51211 -22.725 4.6724
lowerback 19.925 1.77132 -0.891778
upperback 11.9174 1.92953 -0.644239
thorax 1.73652 0.862226 -0.525557
lowerneck 6.4771 -5.16809 -4.2473
upperneck -12.6924 -6.93114 4.88369
head -4.53392 -3.54725 2.58213
rclavicle -1.74931e-014 1.70955e-014
rhumerus 13.6968 4.57322 -83.4589
rradius 130.596
rwrist 22.0943
rhand 23.3656 -3.54506
rfingers 7.12502
rthumb 47.6565 -25.9165
lclavicle -1.74931e-014 1.70955e-014
lhumerus 26.132 -21.9472 77.4036
lradius 129.021
lwrist -12.8567
lhand 14.6255 39.3667
lfingers 7.12502
lthumb 39.499 64.7419
rfemur -42.0782 13.4072 10.4511
rtibia 53.4056
rfoot -20.0451 -5.69373
rtoes -15.3294
lfemur -34.4009 12.2699 -26.6262
ltibia 52.7715
lfoot -27.4572 14.2581
ltoes -15.5845
1796
root 0.61917 16.8671 -1.71725 6.51794 -22.6393 4.62465
lowerback 19.8836 1.77095 -0.847932
upperback 11.9484 1.9375 -0.622095
thorax 1.79188 0.867733 -0.526625
lowerneck 6.51262 -5.18125 -4.28887
upperneck -12.7178 -6.95946 4.84835
head -4.54627 -3.55724 2.58119
rclavicle 2.18663e-014 -3.97569e-015
rhumerus 13.6584 4.43383 -83.4554
rradius 130.559
rwrist 22.1702
rhand 23.4888 -3.49682
rfingers 7.12502
rthumb 47.7702 -25.8162
lclavicle 2.18663e-014 -3.97569e-015
lhumerus 26.1713 -21.9671 77.371
lradius 128.998
lwrist -12.8301
lhand 14.6036 39.4594
lfingers 7.12502
lthumb 39.4784 64.8407
rfemur -42.054 13.3864 10.5266
rtibia 53.4565
rfoot -20.104 -5.79094
rtoes -15.3536
lfemur -34.4044 12.2617 -26.5554
ltibia 52.7907
lfoot -27.4264 14.3483
ltoes -16.2412
1797
root 0.614059 16.8642 -1.72187 6.55827 -22.5414 4.51353
lowerback 19.9265 1.76612 -0.77272
upperback 11.9233 1.94371 -0.584106
thorax 1.74376 0.873821 -0.531359
lowerneck 6.48616 -5.19462 -4.31459
upperneck -12.6162 -6.98536 4.80527
head -4.51036 -3.56617 2.5696
rclavicle 2.14687e-014 -8.74653e-015
rhumerus 13.544 4.33871 -83.4724
rradius 130.541
rwrist 22.2423
rhand 23.5984 -3.555
rfingers 7.12502
rthumb 47.8713 -25.8276
lclavicle 2.14687e-014 -8.74653e-015
lhumerus 26.088 -21.9658 77.3863
lradius 128.987
lwrist -12.776
lhand 14.7346 39.5747
lfingers 7.12502
lthumb 39.6017 64.9196
rfemur -42.0556 13.3761 10.6672
rtibia 53.4899
rfoot -20.1168 -5.88001
rtoes -15.3
lfemur -34.4448 12.2456 -26.406
ltibia 52.8151
lfoot -27.3929 14.2217
ltoes -16.0232
1798
root 0.60818 16.8631 -1.72668 6.52729 -22.4152 4.55067
lowerback 19.9887 1.76504 -0.840174
upperback 11.9021 1.93199 -0.565725
thorax 1.68644 0.864338 -0.473778
lowerneck 6.37881 -5.22047 -4.34727
upperneck -12.4151 -7.02838 4.74684
head -4.43007 -3.58227 2.54972
rclavicle 5.96354e-014 1.51076e-014
rhumerus 13.4574 4.26815 -83.4445
rradius 130.514
rwrist 22.2786
rhand 23.6487 -3.69486
rfingers 7.12502
rthumb 47.9177 -25.946
lclavicle 5.96354e-014 1.51076e-014
lhumerus 25.9971 -21.9641 77.4254
lradius 128.911
lwrist -12.7947
lhand 14.8997 39.5916
lfingers 7.12502
lthumb 39.7573 64.8904
rfemur -42.0254 13.3158 10.6688
rtibia 53.5208
rfoot -20.1165 -5.95278
rtoes -15.2996
lfemur -34.4444 12.2031 -26.402
ltibia 52.8196
lfoot -27.4236 14.039
ltoes -15.7463
1799
root 0.601722 16.8641 -1.73003 6.47239 -22.3033 4.64479
lowerback 19.9206 1.7698 -0.963392
upperback 11.966 1.92054 -0.560572
thorax 1.78674 0.851822 -0.394114
lowerneck 6.25133 -5.23835 -4.32376
upperneck -12.3259 -7.061 4.62744
head -4.38568 -3.59193 2.50437
rclavicle 3.97569e-016 3.1408e-014
rhumerus 13.4984 4.20545 -83.4298
rradius 130.438
rwrist 22.3591
rhand 23.695 -3.76708
rfingers 7.12502
rthumb 47.9604 -25.9984
lclavicle 3.97569e-016 3.1408e-014
lhumerus 26.0815 -21.904 77.3989
lradius 128.802
lwrist -12.7465
lhand 14.971 39.5966
lfingers 7.12502
lthumb 39.8244 64.8754
rfemur -41.9862 13.2625 10.606
rtibia 53.5461
rfoot -20.1661 -5.92819
rtoes -14.7659
lfemur -34.4074 12.1362 -26.4532
ltibia 52.7922
lfoot -27.4224 13.9297
ltoes -15.7786
1800
root 0.594973 16.8651 -1.73289 6.43715 -22.1939 4.64263
lowerback 20.0747 1.75413 -1.0371
upperback 11.8944 1.88719 -0.528105
thorax 1.62748 0.831066 -0.317288
lowerneck 6.25005 -5.21618 -4.38245
upperneck -12.2355 -7.04576 4.5578
head -4.35933 -3.57763 2.4893
rclavicle 2.3059e-014 -1.03368e-014
rhumerus 13.3715 4.24988 -83.4191
rradius 130.335
rwrist 22.3972
rhand 23.6155 -3.80906
rfingers 7.12502
rthumb 47.8871 -26.0744
lclavicle 2.3059e-014 -1.03368e-014
lhumerus 25.904 -21.8256 77.4752
lradius 128.701
lwrist -12.8009
lhand 15.1031 39.5358
lfingers 7.12502
lthumb 39.9487 64.7773
rfemur -41.925 13.216 10.6524
rtibia 53.5615
rfoot -20.1894 -5.96504
rtoes -14.5137
lfemur -34.3507 12.1097 -26.4061
ltibia 52.7675
lfoot -27.3574 13.8439
ltoes -15.7977
1801
root 0.587492 16.8671 -1.73526 6.39007 -22.0408 4.62552
lowerback 19.9083 1.74336 -0.985444
upperback 12.0395 1.88499 -0.524682
thorax 1.87181 0.831586 -0.335943
lowerneck 6.34321 -5.23694 -4.48039
upperneck -12.4244 -7.07273 4.68344
head -4.4227 -3.59422 2.55256
rclavicle 1.94809e-014 -1.27222e-014
rhumerus 13.5344 4.09829 -83.4251
rradius 130.275
rwrist 22.4539
rhand 23.7659 -3.97465
rfingers 7.12502
rthumb 48.0258 -26.1754
lclavicle 1.94809e-014 -1.27222e-014
lhumerus 25.9996 -21.8632 77.4356
lradius 128.616
lwrist -12.8884
lhand 14.9979 39.4312
lfingers 7.12502
lthumb 39.8497 64.7024
rfemur -41.8129 13.1261 10.7352
rtibia 53.5713
rfoot -20.2014 -6.10665
rtoes -14.6149
lfemur -34.2663 12.0394 -26.334
ltibia 52.7415
lfoot -27.2801 13.6629
ltoes -15.3228
1802
root 0.579367 16.8674 -1.73874 6.42387 -21.8221 4.55363
lowerback 19.8827 1.68948 -0.950664
upperback 12.0549 1.82373 -0.473022
thorax 1.90061 0.801356 -0.289067
lowerneck 6.32293 -5.2198 -4.57874
upperneck -12.3824 -7.05902 4.68931
head -4.40337 -3.58339 2.56744
rclavicle 8.74653e-015 9.93923e-015
rhumerus 13.5366 4.08501 -83.4027
rradius 130.215
rwrist 22.5044
rhand 23.868 -4.18799
rfingers 7.12502
rthumb 48.1198 -26.3447
lclavicle 8.74653e-015 9.93923e-015
lhumerus 25.8879 -21.7604 77.5014
lradius 128.519
lwrist -12.9309
lhand 14.9478 39.4178
lfingers 7.12502
lthumb 39.8025 64.7031
rfemur -41.7439 13.0298 10.8554
rtibia 53.5817
rfoot -20.2413 -6.22455
rtoes -14.5067
lfemur -34.2829 11.9269 -26.2137
ltibia 52.7419
lfoot -27.1761 13.5203
ltoes -15.1452
1803
root 0.570619 16.8681 -1.74315 6.51461 -21.5841 4.45768
lowerback 19.863 1.63715 -0.855727
upperback 12.0124 1.77463 -0.44193
thorax 1.86531 0.782024 -0.300987
lowerneck 6.32151 -5.20623 -4.57724
upperneck -12.29 -7.04866 4.62062
head -4.37829 -3.57428 2.54326
rclavicle -3.97569e-016 -2.26615e-014
rhumerus 13.494 4.03801 -83.414
rradius 130.133
rwrist 22.5861
rhand 23.967 -4.31321
rfingers 7.12502
rthumb 48.2111 -26.4269
lclavicle -3.97569e-016 -2.26615e-014
lhumerus 25.7603 -21.6623 77.5545
lradius 128.403
lwrist -12.9492
lhand 15.0587 39.5017
lfingers 7.12502
lthumb 39.9069 64.7558
rfemur -41.7382 12.916 11.0028
rtibia 53.5949
rfoot -20.2269 -6.39239
rtoes -14.603
lfemur -34.3648 11.8283 -26.067
ltibia 52.7451
lfoot -27.1443 13.4188
ltoes -15.4336
1804
root 0.561997 16.8676 -1.74911 6.54045 -21.3365 4.44895
lowerback 19.8551 1.60622 -0.798499
upperback 11.9978 1.74635 -0.459808
thorax 1.85551 0.77279 -0.347132
lowerneck 6.36085 -5.20542 -4.48584
upperneck -12.295 -7.04618 4.55838
head -4.39233 -3.57332 2.51123
rclavicle 2.18663e-014 -1.47101e-014
rhumerus 13.4589 3.97175 -83.4676
rradius 130.037
rwrist 22.6541
rhand 23.9237 -4.35263
rfingers 7.12502
rthumb 48.1712 -26.4852
lclavicle 2.18663e-014 -1.47101e-014
lhumerus 25.736 -21.6538 77.5126
lradius 128.388
lwrist -12.9487
lhand 15.2235 39.6794
lfingers 7.12502
lthumb 40.062 64.8867
rfemur -41.7132 12.7655 11.0723
rtibia 53.6162
rfoot -20.194 -6.58481
rtoes -14.799
lfemur -34.4028 11.7185 -26.0044
ltibia 52.7287
lfoot -27.0722 13.296
ltoes -15.4806
1805
root 0.553637 16.8681 -1.75391 6.54097 -21.0792 4.46504
lowerback 21.0743 1.5179 -1.16932
upperback 11.2264 1.55943 -0.306999
thorax 0.388097 0.665032 0.0222847
lowerneck 6.27171 -5.04551 -4.64564
upperneck -11.4296 -6.87859 4.24443
head -4.12831 -3.46685 2.40781
rclavicle 2.38542e-015 0
rhumerus 12.4686 4.55482 -83.4479
rradius 130.037
rwrist 22.5942
rhand 23.9024 -4.55307
rfingers 7.12502
rthumb 48.1516 -26.6948
lclavicle 2.38542e-015 0
lhumerus 24.4076 -21.3721 78.0623
lradius 128.449
lwrist -13.0481
lhand 15.2814 39.9584
lfingers 7.12502
lthumb 40.1164 65.1492
rfemur -41.6568 12.5775 11.1177
rtibia 53.6342
rfoot -20.2086 -6.67591
rtoes -14.8526
lfemur -34.3958 11.5894 -25.9719
ltibia 52.6863
lfoot -27.022 13.0843
ltoes -15.2404
1806
root 0.543616 16.8705 -1.75684 6.56666 -20.8337 4.48938
lowerback 21.0111 1.49071 -1.17987
upperback 11.2496 1.52607 -0.307121
thorax 0.444878 0.648594 0.0363977
lowerneck 6.11418 -5.02937 -4.6909
upperneck -11.2913 -6.85304 4.26382
head -4.05883 -3.45344 2.41104
rclavicle -5.48646e-014 3.22031e-014
rhumerus 12.5391 4.53825 -83.4191
rradius 129.994
rwrist 22.6488
rhand 24.0035 -4.68795
rfingers 7.12502
rthumb 48.2447 -26.7858
lclavicle -5.48646e-014 3.22031e-014
lhumerus 24.4549 -21.2453 78.0705
lradius 128.34
lwrist -13.1081
lhand 15.1248 39.9278
lfingers 7.12502
lthumb 39.9691 65.1632
rfemur -41.6293 12.4031 11.1569
rtibia 53.6536
rfoot -20.2192 -6.78304
rtoes -14.9892
lfemur -34.3951 11.4704 -25.9438
ltibia 52.618
lfoot -26.9287 12.9471
ltoes -15.384
1807
root 0.532675 16.8745 -1.76056 6.56626 -20.5477 4.48394
lowerback 20.9511 1.44674 -1.13881
upperback 11.2981 1.47958 -0.324221
thorax 0.529548 0.628206 0.00609018
lowerneck 6.00715 -4.99871 -4.63431
upperneck -11.2639 -6.8036 4.24374
head -4.03764 -3.42976 2.38979
rclavicle 6.48038e-014 -2.46493e-014
rhumerus 12.6073 4.52745 -83.4304
rradius 129.955
rwrist 22.7334
rhand 24.0904 -4.74088
rfingers 7.12502
rthumb 48.3247 -26.8008
lclavicle 6.48038e-014 -2.46493e-014
lhumerus 24.505 -21.1289 78.0441
lradius 128.289
lwrist -13.2234
lhand 15.0435 39.8537
lfingers 7.12502
lthumb 39.8926 65.1121
rfemur -41.5387 12.2202 11.2401
rtibia 53.6627
rfoot -20.2351 -6.88062
rtoes -14.8746
lfemur -34.3545 11.3311 -25.8588
ltibia 52.5375
lfoot -26.7988 12.6656
ltoes -14.8481
